# xmcd
#
# Track frame offsets:
#	150
#	18040
#	37047
#
# Disc length: 761 seconds
#
# Revision: 3
# Processed by: cddbd v1.4PL0 Copyright (c) Steve Scherf et al.
# Submitted via: audiograbber 1.82.00
#
DISCID=1802f703
DTITLE=Braxtons - Slow Flow [CDS)
DYEAR=1997
DGENRE=
TTITLE0=Slow Flow
TTITLE1=L.A.D.I.
TTITLE2=24/7 (Non LP Bonus  Track)
EXTD=rlokker@worldonline.nl\nmisc
EXTT0=
EXTT1=
EXTT2=
PLAYORDER=
